<?xml version="1.0" encoding="UTF-8"?>
<!DOCTYPE svg PUBLIC "-//W3C//DTD SVG 1.1//EN" "http://www.w3.org/Graphics/SVG/1.1/DTD/svg11.dtd">
<!-- Creator: CorelDRAW 2021 (64-Bit) -->
<svg xmlns="http://www.w3.org/2000/svg" xml:space="preserve" width="39.6875mm" height="39.688mm" version="1.1" style="shape-rendering:geometricPrecision; text-rendering:geometricPrecision; image-rendering:optimizeQuality; fill-rule:evenodd; clip-rule:evenodd"
viewBox="0 0 1416.26 1416.28"
 xmlns:xlink="http://www.w3.org/1999/xlink"
 xmlns:xodm="http://www.corel.com/coreldraw/odm/2003">
 <defs>
  <style type="text/css">
   <![CDATA[
    .fil0 {fill:white;fill-rule:nonzero}
   ]]>
  </style>
 </defs>
 <g id="Layer_x0020_1">
  <metadata id="CorelCorpID_0Corel-Layer"/>
  <path class="fil0" d="M1225.42 0l-1034.59 0c-105.39,0 -190.84,85.44 -190.84,190.84l0 1034.59c0,105.41 85.44,190.84 190.84,190.84l510.25 0 0.88 -506.08 -131.5 0c-17.09,0 -30.96,-13.82 -31.01,-30.91l-0.64 -163.15c-0.07,-17.17 13.85,-31.14 31.02,-31.14l131.26 0 0 -157.63c0,-182.92 111.72,-282.53 274.89,-282.53l133.92 0c17.12,0 31.02,13.89 31.02,31.02l0 137.55c0,17.14 -13.89,31.02 -31.01,31.02l-82.18 0.05c-88.75,0 -105.94,42.16 -105.94,104.06l0 136.46 195 0c18.59,0 33.01,16.23 30.81,34.66l-19.34 163.15c-1.84,15.62 -15.09,27.37 -30.8,27.37l-174.78 0 -0.88 506.1 303.61 0c105.39,0 190.83,-85.45 190.83,-190.85l0 -1034.6c0,-105.39 -85.44,-190.84 -190.83,-190.84l0 0z"/>
 </g>
</svg>
