<?xml version="1.0" encoding="UTF-8"?>
<!DOCTYPE svg PUBLIC "-//W3C//DTD SVG 1.1//EN" "http://www.w3.org/Graphics/SVG/1.1/DTD/svg11.dtd">
<!-- Creator: CorelDRAW 2021 (64-Bit) -->
<svg xmlns="http://www.w3.org/2000/svg" xml:space="preserve" width="39.6875mm" height="39.688mm" version="1.1" style="shape-rendering:geometricPrecision; text-rendering:geometricPrecision; image-rendering:optimizeQuality; fill-rule:evenodd; clip-rule:evenodd"
viewBox="0 0 355.3 355.3"
 xmlns:xlink="http://www.w3.org/1999/xlink"
 xmlns:xodm="http://www.corel.com/coreldraw/odm/2003">
 <defs>
  <style type="text/css">
   <![CDATA[
    .fil1 {fill:#1F2270}
    .fil0 {fill:white;fill-rule:nonzero}
   ]]>
  </style>
 </defs>
 <g id="Layer_x0020_1">
  <metadata id="CorelCorpID_0Corel-Layer"/>
  <g id="_1649216569024">
   <path class="fil0" d="M307.42 0l-259.55 0c-26.44,0 -47.88,21.44 -47.88,47.88l0 259.55c0,26.44 21.44,47.88 47.88,47.88l33.7 0 0 0 149.68 0 68.19 0 7.98 0c26.44,0 47.87,-21.44 47.87,-47.88l0 -259.55c0,-26.44 -21.44,-47.88 -47.87,-47.88z"/>
   <g>
    <path class="fil1" d="M52.31 228.31l0 -101.32c0,-41.18 33.5,-74.68 74.68,-74.68l101.32 0c41.17,0 74.68,33.5 74.68,74.68l0 101.32c0,41.18 -33.5,74.68 -74.68,74.68l-101.32 0c-41.18,0 -74.68,-33.5 -74.68,-74.68zm225.46 0c0,27.31 -22.14,49.46 -49.46,49.46l-101.32 0c-27.31,0 -49.46,-22.14 -49.46,-49.46l0 -101.32c0,-27.31 22.14,-49.46 49.46,-49.46l101.32 0c27.31,0 49.46,22.14 49.46,49.46l0 101.32z"/>
    <path class="fil1" d="M177.65 112.82c-35.75,0 -64.83,29.09 -64.83,64.83 0,35.75 29.09,64.83 64.83,64.83 35.75,0 64.83,-29.08 64.83,-64.83 0,-35.75 -29.08,-64.83 -64.83,-64.83zm0 104.45c-21.88,0 -39.62,-17.73 -39.62,-39.61 0,-21.88 17.74,-39.62 39.62,-39.62 21.88,0 39.61,17.74 39.61,39.62 0,21.88 -17.73,39.61 -39.61,39.61z"/>
    <path class="fil1" d="M258.14 113.31c0,8.58 -6.96,15.54 -15.54,15.54 -8.58,0 -15.54,-6.96 -15.54,-15.54 0,-8.58 6.96,-15.54 15.54,-15.54 8.58,0 15.54,6.96 15.54,15.54z"/>
   </g>
  </g>
 </g>
</svg>
