<?xml version="1.0" encoding="UTF-8"?>
<!DOCTYPE svg PUBLIC "-//W3C//DTD SVG 1.1//EN" "http://www.w3.org/Graphics/SVG/1.1/DTD/svg11.dtd">
<!-- Creator: CorelDRAW 2021 (64-Bit) -->
<svg xmlns="http://www.w3.org/2000/svg" xml:space="preserve" width="158.75mm" height="116.535mm" version="1.1" style="shape-rendering:geometricPrecision; text-rendering:geometricPrecision; image-rendering:optimizeQuality; fill-rule:evenodd; clip-rule:evenodd"
viewBox="0 0 15526.33 11397.55"
 xmlns:xlink="http://www.w3.org/1999/xlink"
 xmlns:xodm="http://www.corel.com/coreldraw/odm/2003">
 <defs>
  <style type="text/css">
   <![CDATA[
    .fil1 {fill:white}
    .fil0 {fill:white;fill-rule:nonzero}
   ]]>
  </style>
 </defs>
 <g id="Layer_x0020_1">
  <metadata id="CorelCorpID_0Corel-Layer"/>
  <path class="fil0" d="M1863.59 11397.55c-240.85,0 -457.72,-53.77 -650.64,-161.34 -192.91,-107.56 -344.89,-256.05 -455.96,-445.45 -111.08,-189.41 -166.61,-402.2 -166.61,-638.36 0,-236.18 55.53,-448.96 166.61,-638.36 111.07,-189.4 263.05,-337.89 455.96,-445.45 192.92,-107.56 409.79,-161.35 650.64,-161.35 177.72,0 341.38,28.65 491.04,85.93 124.67,47.73 233.94,114.54 327.78,200.39 15.42,14.12 23.56,31.86 24.18,52.76 0.63,20.9 -6.44,39.11 -20.99,54.1l-10.27 10.6c-27.52,28.37 -72.25,30.37 -102.19,4.56 -188.2,-162.32 -422.39,-243.48 -702.54,-243.48 -205.77,0 -392.84,46.76 -561.19,140.29 -168.37,93.53 -300.48,222.73 -396.35,387.59 -95.88,164.85 -143.8,348.99 -143.8,552.42 0,203.44 47.92,387.59 143.8,552.43 95.87,164.84 227.98,294.04 396.35,387.57 168.35,93.54 355.42,140.31 561.19,140.31 278.24,0 512.4,-82.3 702.48,-246.86 29.92,-25.9 74.72,-23.94 102.28,4.47l10.23 10.54c14.55,15 21.61,33.2 20.99,54.1 -0.62,20.89 -8.74,38.65 -24.17,52.77 -94.01,86.04 -203.86,153.43 -329.53,202.14 -150.81,58.46 -313.93,87.68 -489.3,87.68zm2462.25 0c-240.84,0 -458.31,-54.37 -652.38,-163.1 -194.08,-108.73 -346.67,-257.79 -457.73,-447.19 -111.08,-189.42 -166.61,-401.02 -166.61,-634.86 0,-233.83 55.53,-445.46 166.61,-634.85 111.07,-189.4 263.65,-338.48 457.73,-447.21 194.07,-108.73 411.54,-163.1 652.38,-163.1 240.85,0 458.31,53.78 652.39,161.35 194.08,107.55 346.66,256.05 457.72,445.45 111.08,189.41 166.61,402.19 166.61,638.36 0,236.17 -55.53,448.96 -166.61,638.36 -111.07,189.4 -263.64,337.88 -457.72,445.45 -194.08,107.56 -411.54,161.34 -652.39,161.34zm0 -164.84c205.77,0 391.67,-46.77 557.69,-140.31 166.02,-93.53 296.96,-222.73 392.85,-387.57 95.87,-164.85 143.8,-348.99 143.8,-552.43 0,-203.43 -47.93,-387.58 -143.8,-552.42 -95.89,-164.86 -226.83,-294.06 -392.85,-387.59 -166.01,-93.53 -351.92,-140.29 -557.69,-140.29 -205.77,0 -392.26,46.76 -559.45,140.29 -167.19,93.53 -298.71,222.73 -394.58,387.59 -95.89,164.85 -143.81,348.99 -143.81,552.42 0,203.44 47.92,387.59 143.81,552.43 95.87,164.84 227.39,294.04 394.58,387.57 167.19,93.54 353.68,140.31 559.45,140.31zm1972.08 -2307.93l897.04 0c254.88,0 481.11,52.62 678.7,157.84 197.58,105.23 351.33,250.8 461.22,436.69 109.91,185.89 164.86,396.92 164.86,633.09 0,236.17 -54.95,447.21 -164.86,633.1 -109.89,185.9 -263.64,331.45 -461.22,436.67 -197.59,105.24 -423.82,157.85 -678.7,157.85l-897.04 0c-41.06,0 -74.53,-33.48 -74.53,-74.53l0 -2306.19c0,-41.06 33.47,-74.53 74.53,-74.53zm883.01 2293.9c226.81,0 426.74,-45.01 599.77,-135.05 173.03,-90.02 306.32,-215.7 399.86,-377.05 93.53,-161.34 140.29,-346.07 140.29,-554.18 0,-208.12 -46.76,-392.83 -140.29,-554.18 -93.54,-161.34 -226.83,-287.02 -399.86,-377.05 -173.03,-90.02 -372.96,-135.04 -599.77,-135.04l-704.15 0c-41.05,0 -74.53,33.48 -74.53,74.53l0 1983.51c0,41.05 33.48,74.52 74.53,74.52l704.15 0zm2014.16 -2293.9l29.82 0c41.05,0 74.53,33.47 74.53,74.53l0 2306.19c0,41.05 -33.48,74.53 -74.53,74.53l-29.82 0c-41.05,0 -74.53,-33.48 -74.53,-74.53l0 -2306.19c0,-41.06 33.48,-74.53 74.53,-74.53zm2959.44 74.53l0 2306.19c0,41.05 -33.47,74.53 -74.53,74.53l-36.54 0c-23.66,0 -44.03,-9.92 -58.63,-28.53l-1517.52 -1934.29c-19.97,-25.46 -52.38,-35 -82.98,-24.45 -30.58,10.57 -50.19,38.08 -50.19,70.45l0 1842.3c0,41.05 -33.47,74.53 -74.53,74.53l-29.82 0c-41.05,0 -74.52,-33.48 -74.52,-74.53l0 -2306.19c0,-41.06 33.47,-74.53 74.52,-74.53l40 0c23.69,0 44.07,9.93 58.68,28.58l1513.96 1933.82c19.95,25.49 52.38,35.07 82.98,24.51 30.6,-10.55 50.23,-38.08 50.23,-70.45l0 -1841.94c0,-41.06 33.48,-74.53 74.53,-74.53l29.83 0c41.06,0 74.53,33.47 74.53,74.53zm2684.08 1163.62l22.81 0c41.05,0 74.53,33.48 74.53,74.53l0 811.85c0,22.01 -8.48,40.94 -24.88,55.59 -102.59,91.63 -224.67,162.3 -366.19,211.99 -153.17,53.77 -315.1,80.67 -485.8,80.67 -243.18,0 -462.4,-53.77 -657.65,-161.34 -195.26,-107.56 -348.41,-256.05 -459.47,-445.45 -111.08,-189.41 -166.61,-402.2 -166.61,-638.36 0,-236.18 55.53,-448.96 166.61,-638.36 111.07,-189.4 264.22,-337.89 459.47,-445.45 195.26,-107.56 415.65,-161.35 661.16,-161.35 180.05,0 345.49,28.65 496.3,85.93 125.55,47.7 236.16,113.64 331.72,197.79 15.74,13.85 24.22,31.51 25.19,52.44 0.98,20.95 -5.82,39.31 -20.19,54.57l-10.51 11.18c-27.45,29.17 -73.08,31.4 -103.26,5.08 -89.16,-77.81 -186.88,-135.74 -293.1,-173.74 -127.44,-45.58 -268.32,-68.39 -422.66,-68.39 -210.44,0 -400.44,46.76 -569.95,140.29 -169.53,93.53 -302.23,222.73 -398.1,387.59 -95.89,164.85 -143.81,348.99 -143.81,552.42 0,201.09 48.52,384.07 145.55,548.92 97.05,164.85 229.75,294.62 398.1,389.33 168.37,94.69 357.77,142.06 568.21,142.06 265.63,0 488.34,-67.07 668.06,-201.19 19.47,-14.54 29.95,-35.44 29.95,-59.74l0 -734.33c0,-41.05 33.47,-74.53 74.52,-74.53z"/>
  <g id="_1649214557920">
   <path class="fil1" d="M4399.24 269.93l-4351.19 2705.7c-30.77,19.14 -48.05,50.25 -48.05,86.48 0,710.48 0,1420.96 0,2131.44 0,36.23 17.28,67.34 48.05,86.48l4351.19 2705.7c32.24,20.07 70.07,20.98 103.22,2.52 33.2,-18.45 52.36,-51.01 52.36,-89l0 -1961.47c0,-36.23 -17.3,-67.37 -48.09,-86.48l-2178.53 -1352.87c-33.69,-20.94 -67.82,-32.36 -107.5,-32.24l-955.46 3.34c-36.24,0.12 -48.15,50.27 -48.15,86.52 0,36.24 17.37,67.42 48.16,86.49l2560.71 1587.37c30.81,19.09 48.14,50.27 48.14,86.51l0 357.7c0,38.07 -19.27,70.69 -52.6,89.13 -33.32,18.4 -71.23,17.34 -103.42,-2.92l-2935.52 -1845.73c-30.57,-19.27 -47.73,-50.35 -47.62,-86.51 0.97,-446.06 1.02,-933.18 0,-1400.5 -0.11,-36.16 17.05,-67.24 47.62,-86.51l2935.52 -1845.72c32.19,-20.27 70.1,-21.33 103.42,-2.92 33.33,18.43 52.6,51.05 52.6,89.13l0 357.7c0,36.23 -17.34,67.41 -48.14,86.5l-2562.04 1588.58c-30.77,19.07 -48.16,50.25 -48.16,86.5 0,36.24 11.89,86.61 48.15,86.52l945.94 -2.32c39.7,-0.09 84.62,-6.86 118.34,-27.8l2178.53 -1352.87c30.79,-19.11 48.09,-50.24 48.09,-86.48l0 -1961.47c0,-37.99 -19.16,-70.56 -52.36,-89 -33.16,-18.46 -70.99,-17.54 -103.22,2.52z"/>
   <path class="fil1" d="M5205.24 6418.46l839.21 1778.8c16.17,34.28 47.31,55.54 85.12,58.12 37.8,2.6 71.58,-14.19 92.25,-45.95l2820.92 -4338.28c30.56,-47.03 17.3,-110.26 -29.66,-140.93l-401.53 -262.01c-23.44,-15.31 -49.2,-20.09 -76.63,-14.33 -27.44,5.79 -49.11,20.59 -64.35,44.08l-2148.64 3313.27c-20.65,31.85 -54.59,48.71 -92.48,46.04 -37.89,-2.67 -69.09,-24.11 -85.14,-58.56l-151.56 -325.02c-15.3,-32.78 -12.79,-68.25 6.93,-98.58l3206.41 -4927.17c20.73,-31.85 54.58,-48.73 92.49,-46.05 37.9,2.67 69.06,24.1 85.13,58.55l149.94 321.58c15.27,32.73 12.69,68.09 -6.89,98.46l-564.43 876.03c-30.32,47.06 -17.12,110.14 29.76,140.72l402.43 262.54c46.97,30.63 110.28,17.35 140.95,-29.63l778.83 -1193.86c19.88,-30.47 22.31,-66.17 6.81,-99.08l-839.21 -1778.82c-16.17,-34.27 -47.31,-55.53 -85.12,-58.12 -37.8,-2.61 -71.55,14.21 -92.25,45.94l-4092.5 6273.18c-19.88,30.46 -22.33,66.17 -6.81,99.08z"/>
   <path class="fil1" d="M11127.09 269.93l4351.19 2705.7c30.77,19.14 48.05,50.25 48.05,86.48 0,710.48 0,1420.96 0,2131.44 0,36.23 -17.28,67.34 -48.05,86.48l-4351.19 2705.7c-32.24,20.07 -70.07,20.98 -103.22,2.52 -33.2,-18.45 -52.36,-51.01 -52.36,-89l0 -1961.47c0,-36.23 17.3,-67.37 48.09,-86.48l2178.53 -1352.87c33.69,-20.94 67.82,-32.36 107.5,-32.24l955.46 3.34c36.24,0.12 48.15,50.27 48.15,86.52 0,36.24 -17.37,67.42 -48.16,86.49l-2560.71 1587.37c-30.81,19.09 -48.14,50.27 -48.14,86.51l0 357.7c0,38.07 19.27,70.69 52.6,89.13 33.32,18.4 71.23,17.34 103.42,-2.92l2935.52 -1845.73c30.57,-19.27 47.73,-50.35 47.62,-86.51 -0.97,-446.06 -1.02,-933.18 0,-1400.5 0.11,-36.16 -17.05,-67.24 -47.62,-86.51l-2935.52 -1845.72c-32.19,-20.27 -70.1,-21.33 -103.42,-2.92 -33.33,18.43 -52.6,51.05 -52.6,89.13l0 357.7c0,36.23 17.34,67.41 48.14,86.5l2562.04 1588.58c30.77,19.07 48.16,50.25 48.16,86.5 0,36.24 -11.89,86.61 -48.15,86.52l-945.94 -2.32c-39.7,-0.09 -84.62,-6.86 -118.34,-27.8l-2178.53 -1352.87c-30.79,-19.11 -48.09,-50.24 -48.09,-86.48l0 -1961.47c0,-37.99 19.16,-70.56 52.36,-89 33.16,-18.46 70.99,-17.54 103.22,2.52z"/>
  </g>
 </g>
</svg>
