<?xml version="1.0" encoding="UTF-8"?>
<!DOCTYPE svg PUBLIC "-//W3C//DTD SVG 1.1//EN" "http://www.w3.org/Graphics/SVG/1.1/DTD/svg11.dtd">
<!-- Creator: CorelDRAW 2021 (64-Bit) -->
<svg xmlns="http://www.w3.org/2000/svg" xml:space="preserve" width="39.6875mm" height="39.688mm" version="1.1" style="shape-rendering:geometricPrecision; text-rendering:geometricPrecision; image-rendering:optimizeQuality; fill-rule:evenodd; clip-rule:evenodd"
viewBox="0 0 796.63 796.64"
 xmlns:xlink="http://www.w3.org/1999/xlink"
 xmlns:xodm="http://www.corel.com/coreldraw/odm/2003">
 <defs>
  <style type="text/css">
   <![CDATA[
    .fil1 {fill:#1F2270}
    .fil0 {fill:white;fill-rule:nonzero}
   ]]>
  </style>
 </defs>
 <g id="Layer_x0020_1">
  <metadata id="CorelCorpID_0Corel-Layer"/>
  <g id="_1649216310560">
   <path class="fil0" d="M689.29 0l-581.94 0c-59.28,0 -107.35,48.06 -107.35,107.34l0 581.94c0,59.29 48.06,107.34 107.35,107.34l75.57 0 0 0.01 335.6 0 152.88 0 17.89 0c59.28,0 107.34,-48.06 107.34,-107.35l0 -581.95c0,-59.28 -48.06,-107.34 -107.34,-107.34z"/>
   <path class="fil1" d="M532.79 453.72c-6.92,-3.79 -40.89,-22.13 -47.26,-24.72 -6.37,-2.59 -11.02,-3.93 -15.98,2.94 -4.96,6.86 -19.06,22.22 -23.33,26.76 -4.29,4.55 -8.42,4.97 -15.34,1.17 -6.9,-3.77 -29.32,-12.07 -55.33,-37.06 -20.24,-19.45 -33.5,-43.04 -37.35,-50.24 -3.85,-7.21 -0.03,-10.88 3.63,-14.25 3.28,-3.05 7.36,-7.97 11.03,-11.95 3.67,-3.98 4.96,-6.87 7.48,-11.48 2.52,-4.61 1.51,-8.77 -0.13,-12.36 -1.63,-3.58 -14.42,-38.78 -19.76,-53.09 -5.34,-14.32 -11.29,-12.19 -15.4,-12.35 -4.11,-0.14 -8.78,-0.92 -13.48,-1.09 -4.69,-0.18 -12.4,1.3 -19.11,8.1 -6.72,6.8 -25.55,23.16 -26.85,57.83 -1.29,34.64 22.68,69.08 26.03,73.91 3.35,4.84 45.79,79.96 116.32,110.85 70.55,30.88 70.92,21.47 83.86,20.77 12.95,-0.68 42.31,-15.49 48.8,-31.7 6.49,-16.22 7.01,-30.32 5.36,-33.32 -1.65,-3 -6.27,-4.95 -13.19,-8.73zm-129.38 167c-46.65,0 -90.09,-13.99 -126.37,-37.98l-88.27 28.26 28.69 -85.3c-27.5,-37.88 -43.74,-84.4 -43.74,-134.68 0,-126.66 103.04,-229.71 229.69,-229.71 126.67,0 229.7,103.05 229.7,229.71 0,126.65 -103.04,229.69 -229.7,229.69zm0 -505.62c-152.38,0 -275.91,123.53 -275.91,275.93 0,52.13 14.47,100.88 39.59,142.48l-49.8 148.03 152.76 -48.9c39.53,21.85 84.99,34.32 133.36,34.32 152.4,0 275.93,-123.54 275.93,-275.93 0,-152.39 -123.53,-275.93 -275.93,-275.93z"/>
  </g>
 </g>
</svg>
